PathFileType	4	(X/Y/Z)	s08c0402.trc
DataRate	CameraRate	NumFrames	NumMarkers	Units	OrigDataRate	OrigDataStartFrame	OrigNumFrames
200	200	4	50	mm	200	1750	2000
Frame#	Time	racr			lacr			c7			jug			rlel			rdr			llel			ldr			s2			lic			ric			lasi			rasi			rpsi			lpsi			rgt			lgt			rth1			rth2			rth3			rth4			rlfc			rmfc			rsh1			rsh2			rsh3			rsh4			rlmal			rmmal			rcal			rtoe			rmt5			lth1			lth2			lth4			lth3			llfc			lmfc			llmal			lmmal			lcal			lmt5			lsh1			lsh2			lsh3			lsh4			ltoe			SBIKE			LBIKE			RBIKE			
		X1	Y1	Z1	X2	Y2	Z2	X3	Y3	Z3	X4	Y4	Z4	X5	Y5	Z5	X6	Y6	Z6	X7	Y7	Z7	X8	Y8	Z8	X9	Y9	Z9	X10	Y10	Z10	X11	Y11	Z11	X12	Y12	Z12	X13	Y13	Z13	X14	Y14	Z14	X15	Y15	Z15	X16	Y16	Z16	X17	Y17	Z17	X18	Y18	Z18	X19	Y19	Z19	X20	Y20	Z20	X21	Y21	Z21	X22	Y22	Z22	X23	Y23	Z23	X24	Y24	Z24	X25	Y25	Z25	X26	Y26	Z26	X27	Y27	Z27	X28	Y28	Z28	X29	Y29	Z29	X30	Y30	Z30	X31	Y31	Z31	X32	Y32	Z32	X33	Y33	Z33	X34	Y34	Z34	X35	Y35	Z35	X36	Y36	Z36	X37	Y37	Z37	X38	Y38	Z38	X39	Y39	Z39	X40	Y40	Z40	X41	Y41	Z41	X42	Y42	Z42	X43	Y43	Z43	X44	Y44	Z44	X45	Y45	Z45	X46	Y46	Z46	X47	Y47	Z47	X48	Y48	Z48	X49	Y49	Z49	X50	Y50	Z50	
1750	8.7500	882.738239	1373.436609	-128.603311	864.135001	1324.577640	-454.366355	870.604677	1394.656335	-291.486907	799.265849	1251.812128	-274.510422	731.269634	1191.752100	43.748170	774.846185	930.608311	-51.885000	662.547562	1141.198269	-584.663339	777.802773	933.305760	-459.762597	293.647264	1257.639625	-176.122119	408.958893	1240.208486	-353.002954	482.951128	1217.673268	-46.565124	445.862246	1198.879705	-316.186364	476.188510	1146.541572	-77.172787	343.818449	1285.233650	-122.674421	325.692864	1300.462692	-214.423733	354.683159	1117.831432	-10.072896	375.108826	1157.504440	-381.869385	356.827186	949.431474	-4.379100	375.146626	862.627861	-7.293780	350.519823	781.143114	-26.379930	412.152005	861.586231	-9.000302	351.404377	662.371379	-45.916126	335.118830	657.727985	-155.844831	263.710778	560.743162	-15.692329	250.106229	473.841671	-34.421897	196.128031	407.237589	-43.197825	280.129888	465.229525	-60.109337	141.118205	299.728221	-53.346707	186.383429	338.734219	-132.290104	68.294434	319.097671	-102.710041	297.931017	129.399190	-106.463787	209.243704	157.234885	-39.114148	458.373051	1059.828770	-393.681798	535.095786	1019.834863	-402.281921	560.745459	1042.673327	-385.974878	580.876174	943.622106	-409.879983	648.491516	832.460627	-394.335790	650.415342	800.623496	-286.475094	315.936579	582.446974	-396.708652	346.929390	583.289170	-312.957429	237.010317	589.269559	-359.223408	399.912856	451.642452	-425.776216	559.549154	750.186044	-417.956999	502.979290	688.612415	-404.554131	420.166663	655.690138	-403.895350	517.682342	669.794273	-370.447872	487.488855	445.552394	-359.557937	-145.571727	939.021852	-228.176800	10.790903	80.064781	-427.081161	10.737664	80.087441	-28.540032	
1751	8.7550	882.183058	1373.562108	-129.614589	864.025006	1321.448272	-455.151035	870.826223	1393.779341	-293.065964	797.536255	1252.025422	-275.281488	730.380553	1192.458205	42.640923	775.096083	930.757035	-51.855652	661.484170	1139.604860	-586.378257	777.232685	933.352178	-459.715597	293.765775	1259.745233	-176.420324	408.310158	1239.220383	-353.072176	482.994016	1221.565070	-45.844701	445.505014	1199.322173	-315.877606	476.396263	1149.995846	-76.405149	344.463837	1287.597464	-124.207117	325.820095	1302.167996	-215.637969	356.163530	1121.301587	-7.966718	373.930812	1156.818575	-380.889524	360.820012	951.253201	-3.215611	380.714924	864.462732	-7.215507	357.685168	782.537163	-25.541962	417.592736	864.004491	-8.545493	359.806078	664.146580	-44.673200	344.629570	658.851497	-154.647410	268.680092	564.571906	-14.654076	252.076105	477.746957	-35.382992	195.875858	413.696081	-42.492038	281.781133	468.736110	-60.028759	137.389191	307.558801	-52.667249	182.315228	343.425094	-132.060140	65.054878	329.097069	-102.584191	288.665320	132.184213	-106.357126	200.863208	163.147583	-38.908553	456.142987	1058.365163	-393.717634	532.467996	1017.730605	-402.664223	558.599630	1040.914270	-387.239753	577.635950	941.049995	-410.226610	644.841344	830.197943	-395.247036	647.571992	798.107792	-287.833030	318.228089	573.172281	-397.143406	348.620411	574.825465	-312.634594	238.849108	576.145325	-359.557469	407.755745	446.531914	-426.126567	557.631812	744.728080	-418.508690	502.442666	682.141559	-404.369858	420.368555	647.320034	-403.725332	517.327141	664.297615	-369.724499	495.287658	444.513804	-359.522120	-145.553174	939.036768	-228.361941	10.768564	80.048369	-427.108598	10.798119	80.290971	-28.359478	
1752	8.7600	881.656813	1373.841135	-130.179680	863.962765	1318.702447	-456.323466	871.072456	1393.017155	-294.363622	796.002004	1252.301818	-275.778505	729.425142	1193.171394	41.746488	775.417535	930.969524	-52.127998	660.497117	1138.097746	-588.081504	776.520661	933.359698	-459.495549	293.688311	1261.930098	-176.740183	407.792587	1238.179499	-353.233664	483.037033	1225.179474	-45.192276	445.206764	1199.708572	-315.622906	476.454975	1153.443997	-75.889507	344.552694	1290.360161	-124.894452	326.067548	1303.762149	-216.821628	357.212116	1124.552432	-6.342820	372.730456	1156.012534	-380.090689	365.611121	952.540786	-2.773256	387.245291	866.265026	-7.198122	365.561461	783.704795	-24.901512	424.015604	866.437764	-8.990818	369.346273	665.259205	-43.390551	354.296605	660.306193	-153.630326	275.112306	568.609386	-13.510003	255.251679	482.435305	-34.708728	196.812441	420.509711	-41.638885	284.471022	472.022347	-60.036849	134.638810	315.938815	-52.044516	178.750160	348.365817	-131.923906	63.090810	339.868396	-102.206575	279.650110	135.724242	-106.450311	192.728505	169.464514	-39.170435	453.880952	1056.776993	-393.746228	529.717093	1015.415704	-403.016234	556.377919	1038.871910	-388.377302	574.119105	938.224961	-410.191434	641.290574	827.245555	-395.234102	644.183382	795.351422	-288.885290	320.462975	562.787230	-396.766352	350.950439	565.794176	-312.219936	240.943519	562.816463	-358.876795	415.175112	440.634510	-426.539432	555.424668	738.998769	-418.390173	501.755977	675.239403	-403.938144	420.555441	638.325851	-403.248478	516.860318	658.288010	-368.876879	502.582310	442.436038	-359.816564	-145.482433	939.054076	-228.502116	10.764948	80.038410	-427.088627	10.738928	80.147153	-28.548938	
1753	8.7650	881.080751	1374.289656	-130.601043	863.901304	1315.983346	-456.771783	871.204407	1392.565974	-295.377032	794.619816	1252.755569	-276.151899	728.541519	1193.874092	41.077858	775.488607	931.013213	-52.241764	659.656389	1136.871528	-589.658635	775.609962	933.408144	-459.091064	293.617622	1263.933576	-177.521464	407.403929	1237.089429	-353.481795	483.059649	1228.689629	-44.464985	444.965825	1200.024851	-315.423443	476.625789	1156.733837	-75.610008	344.782077	1292.638141	-126.404079	326.103073	1305.288858	-218.611359	357.483117	1127.422079	-6.278523	371.583609	1155.208739	-379.386922	371.051334	953.638334	-2.753052	394.786714	868.007574	-7.080004	374.379179	784.669541	-24.461532	431.149879	869.102444	-9.815038	379.847705	665.542132	-42.425153	364.387121	662.251951	-152.947332	282.615343	572.713707	-12.446363	259.259860	488.110823	-32.835878	198.978067	427.683589	-40.836967	289.563063	476.114564	-58.709554	133.075012	324.744301	-51.290933	175.722966	353.543547	-131.886819	62.298852	351.339587	-101.881671	271.141315	139.158607	-105.771449	185.600702	176.113645	-38.766701	451.598451	1055.268514	-393.826916	527.012463	1013.132352	-403.500193	554.118654	1036.623092	-389.343622	570.627034	935.237398	-409.905391	636.896267	824.050996	-395.538164	640.329012	792.487406	-289.479237	322.844699	552.638191	-397.702893	353.986521	556.092684	-311.202787	243.735147	549.650873	-357.964482	421.739290	433.813578	-426.930914	552.854638	733.270422	-418.035345	500.893753	668.335583	-403.376865	420.812611	629.084250	-402.644656	516.340243	652.238751	-368.127290	509.250697	439.120881	-360.635468	-145.376268	939.115774	-228.527968	10.761855	80.057979	-427.072281	10.726608	80.214246	-28.516152	
